<mxfile host="app.diagrams.net" modified="2022-11-13T15:41:06.613Z" agent="5.0 (Windows NT 10.0; Win64; x64) AppleWebKit/537.36 (KHTML, like Gecko) Chrome/104.0.5112.124 YaBrowser/22.9.5.716 Yowser/2.5 Safari/537.36" etag="bPYqeTazsEISiy8_S6E-" version="20.2.7" type="github">
  <diagram id="C5RBs43oDa-KdzZeNtuy" name="Page-1">
    <mxGraphModel dx="1817" dy="551" grid="1" gridSize="10" guides="1" tooltips="1" connect="1" arrows="1" fold="1" page="1" pageScale="1" pageWidth="827" pageHeight="1169" math="0" shadow="0">
      <root>
        <mxCell id="WIyWlLk6GJQsqaUBKTNV-0" />
        <mxCell id="WIyWlLk6GJQsqaUBKTNV-1" parent="WIyWlLk6GJQsqaUBKTNV-0" />
        <mxCell id="hGpyXgnyY8g93yTtwZEP-18" style="edgeStyle=orthogonalEdgeStyle;rounded=0;orthogonalLoop=1;jettySize=auto;html=1;entryX=0.5;entryY=0;entryDx=0;entryDy=0;" edge="1" parent="WIyWlLk6GJQsqaUBKTNV-1" source="WIyWlLk6GJQsqaUBKTNV-3" target="hGpyXgnyY8g93yTtwZEP-0">
          <mxGeometry relative="1" as="geometry" />
        </mxCell>
        <mxCell id="WIyWlLk6GJQsqaUBKTNV-3" value="Начало" style="rounded=1;whiteSpace=wrap;html=1;fontSize=12;glass=0;strokeWidth=1;shadow=0;" parent="WIyWlLk6GJQsqaUBKTNV-1" vertex="1">
          <mxGeometry x="160" y="220" width="120" height="40" as="geometry" />
        </mxCell>
        <mxCell id="hGpyXgnyY8g93yTtwZEP-23" value="Да" style="edgeStyle=orthogonalEdgeStyle;rounded=0;orthogonalLoop=1;jettySize=auto;html=1;entryX=0.5;entryY=0;entryDx=0;entryDy=0;" edge="1" parent="WIyWlLk6GJQsqaUBKTNV-1" source="WIyWlLk6GJQsqaUBKTNV-6" target="hGpyXgnyY8g93yTtwZEP-10">
          <mxGeometry x="0.6667" y="20" relative="1" as="geometry">
            <mxPoint as="offset" />
          </mxGeometry>
        </mxCell>
        <mxCell id="hGpyXgnyY8g93yTtwZEP-57" value="Нет" style="edgeStyle=orthogonalEdgeStyle;rounded=0;orthogonalLoop=1;jettySize=auto;html=1;entryX=1;entryY=0.5;entryDx=0;entryDy=0;" edge="1" parent="WIyWlLk6GJQsqaUBKTNV-1" source="WIyWlLk6GJQsqaUBKTNV-6" target="hGpyXgnyY8g93yTtwZEP-49">
          <mxGeometry y="-20" relative="1" as="geometry">
            <mxPoint as="offset" />
          </mxGeometry>
        </mxCell>
        <mxCell id="WIyWlLk6GJQsqaUBKTNV-6" value="Заказчик проводит переторжку" style="rhombus;whiteSpace=wrap;html=1;shadow=0;fontFamily=Helvetica;fontSize=12;align=center;strokeWidth=1;spacing=6;spacingTop=-4;fillColor=#e1d5e7;strokeColor=#9673a6;" parent="WIyWlLk6GJQsqaUBKTNV-1" vertex="1">
          <mxGeometry x="170" y="570" width="100" height="80" as="geometry" />
        </mxCell>
        <mxCell id="hGpyXgnyY8g93yTtwZEP-38" value="Да" style="edgeStyle=orthogonalEdgeStyle;rounded=0;orthogonalLoop=1;jettySize=auto;html=1;entryX=0;entryY=0.5;entryDx=0;entryDy=0;" edge="1" parent="WIyWlLk6GJQsqaUBKTNV-1" source="WIyWlLk6GJQsqaUBKTNV-10" target="WIyWlLk6GJQsqaUBKTNV-12">
          <mxGeometry x="-0.2" y="20" relative="1" as="geometry">
            <mxPoint as="offset" />
          </mxGeometry>
        </mxCell>
        <mxCell id="hGpyXgnyY8g93yTtwZEP-41" value="Нет" style="edgeStyle=orthogonalEdgeStyle;rounded=0;orthogonalLoop=1;jettySize=auto;html=1;entryX=0.5;entryY=0;entryDx=0;entryDy=0;" edge="1" parent="WIyWlLk6GJQsqaUBKTNV-1" source="WIyWlLk6GJQsqaUBKTNV-10" target="hGpyXgnyY8g93yTtwZEP-40">
          <mxGeometry x="0.2" y="20" relative="1" as="geometry">
            <mxPoint as="offset" />
          </mxGeometry>
        </mxCell>
        <mxCell id="WIyWlLk6GJQsqaUBKTNV-10" value="Участник 3 победил?" style="rhombus;whiteSpace=wrap;html=1;shadow=0;fontFamily=Helvetica;fontSize=12;align=center;strokeWidth=1;spacing=6;spacingTop=-4;fillColor=#e1d5e7;strokeColor=#9673a6;" parent="WIyWlLk6GJQsqaUBKTNV-1" vertex="1">
          <mxGeometry x="170" y="1100" width="100" height="80" as="geometry" />
        </mxCell>
        <mxCell id="WIyWlLk6GJQsqaUBKTNV-11" value="Конец" style="rounded=1;whiteSpace=wrap;html=1;fontSize=12;glass=0;strokeWidth=1;shadow=0;" parent="WIyWlLk6GJQsqaUBKTNV-1" vertex="1">
          <mxGeometry x="160" y="1280" width="120" height="40" as="geometry" />
        </mxCell>
        <mxCell id="hGpyXgnyY8g93yTtwZEP-44" style="edgeStyle=orthogonalEdgeStyle;rounded=0;orthogonalLoop=1;jettySize=auto;html=1;entryX=1;entryY=0.5;entryDx=0;entryDy=0;" edge="1" parent="WIyWlLk6GJQsqaUBKTNV-1" source="WIyWlLk6GJQsqaUBKTNV-12" target="hGpyXgnyY8g93yTtwZEP-47">
          <mxGeometry relative="1" as="geometry">
            <mxPoint x="470" y="1300" as="targetPoint" />
            <Array as="points">
              <mxPoint x="380" y="1370" />
            </Array>
          </mxGeometry>
        </mxCell>
        <mxCell id="WIyWlLk6GJQsqaUBKTNV-12" value="Вывод значения в отчете - Да" style="rounded=1;whiteSpace=wrap;html=1;fontSize=12;glass=0;strokeWidth=1;shadow=0;fillColor=#ffe6cc;strokeColor=#d79b00;" parent="WIyWlLk6GJQsqaUBKTNV-1" vertex="1">
          <mxGeometry x="320" y="1120" width="120" height="40" as="geometry" />
        </mxCell>
        <mxCell id="hGpyXgnyY8g93yTtwZEP-19" style="edgeStyle=orthogonalEdgeStyle;rounded=0;orthogonalLoop=1;jettySize=auto;html=1;entryX=0.5;entryY=0;entryDx=0;entryDy=0;" edge="1" parent="WIyWlLk6GJQsqaUBKTNV-1" source="hGpyXgnyY8g93yTtwZEP-0" target="hGpyXgnyY8g93yTtwZEP-2">
          <mxGeometry relative="1" as="geometry" />
        </mxCell>
        <mxCell id="hGpyXgnyY8g93yTtwZEP-0" value="Создается тендер" style="rounded=1;whiteSpace=wrap;html=1;fontSize=12;glass=0;strokeWidth=1;shadow=0;fillColor=#ffe6cc;strokeColor=#d79b00;" vertex="1" parent="WIyWlLk6GJQsqaUBKTNV-1">
          <mxGeometry x="160" y="290" width="120" height="40" as="geometry" />
        </mxCell>
        <mxCell id="hGpyXgnyY8g93yTtwZEP-20" style="edgeStyle=orthogonalEdgeStyle;rounded=0;orthogonalLoop=1;jettySize=auto;html=1;entryX=0.5;entryY=0;entryDx=0;entryDy=0;" edge="1" parent="WIyWlLk6GJQsqaUBKTNV-1" source="hGpyXgnyY8g93yTtwZEP-2" target="hGpyXgnyY8g93yTtwZEP-4">
          <mxGeometry relative="1" as="geometry" />
        </mxCell>
        <mxCell id="hGpyXgnyY8g93yTtwZEP-2" value="Участник 1 подал заявку (100 д.е.)" style="rounded=1;whiteSpace=wrap;html=1;fontSize=12;glass=0;strokeWidth=1;shadow=0;fillColor=#ffe6cc;strokeColor=#d79b00;" vertex="1" parent="WIyWlLk6GJQsqaUBKTNV-1">
          <mxGeometry x="160" y="360" width="120" height="40" as="geometry" />
        </mxCell>
        <mxCell id="hGpyXgnyY8g93yTtwZEP-21" style="edgeStyle=orthogonalEdgeStyle;rounded=0;orthogonalLoop=1;jettySize=auto;html=1;entryX=0.5;entryY=0;entryDx=0;entryDy=0;" edge="1" parent="WIyWlLk6GJQsqaUBKTNV-1" source="hGpyXgnyY8g93yTtwZEP-4" target="hGpyXgnyY8g93yTtwZEP-6">
          <mxGeometry relative="1" as="geometry" />
        </mxCell>
        <mxCell id="hGpyXgnyY8g93yTtwZEP-4" value="Участник 2 подал заявку (1000 д.е.)" style="rounded=1;whiteSpace=wrap;html=1;fontSize=12;glass=0;strokeWidth=1;shadow=0;fillColor=#ffe6cc;strokeColor=#d79b00;" vertex="1" parent="WIyWlLk6GJQsqaUBKTNV-1">
          <mxGeometry x="160" y="430" width="120" height="40" as="geometry" />
        </mxCell>
        <mxCell id="hGpyXgnyY8g93yTtwZEP-22" style="edgeStyle=orthogonalEdgeStyle;rounded=0;orthogonalLoop=1;jettySize=auto;html=1;entryX=0.5;entryY=0;entryDx=0;entryDy=0;" edge="1" parent="WIyWlLk6GJQsqaUBKTNV-1" source="hGpyXgnyY8g93yTtwZEP-6" target="WIyWlLk6GJQsqaUBKTNV-6">
          <mxGeometry relative="1" as="geometry" />
        </mxCell>
        <mxCell id="hGpyXgnyY8g93yTtwZEP-6" value="Участник 3 подал заявку (5000 д.е.)" style="rounded=1;whiteSpace=wrap;html=1;fontSize=12;glass=0;strokeWidth=1;shadow=0;fillColor=#ffe6cc;strokeColor=#d79b00;" vertex="1" parent="WIyWlLk6GJQsqaUBKTNV-1">
          <mxGeometry x="160" y="500" width="120" height="40" as="geometry" />
        </mxCell>
        <mxCell id="hGpyXgnyY8g93yTtwZEP-26" style="edgeStyle=orthogonalEdgeStyle;rounded=0;orthogonalLoop=1;jettySize=auto;html=1;entryX=0.5;entryY=0;entryDx=0;entryDy=0;" edge="1" parent="WIyWlLk6GJQsqaUBKTNV-1" source="hGpyXgnyY8g93yTtwZEP-10" target="hGpyXgnyY8g93yTtwZEP-12">
          <mxGeometry relative="1" as="geometry" />
        </mxCell>
        <mxCell id="hGpyXgnyY8g93yTtwZEP-10" value="Участник 1 подал заявку (100 д.е.)" style="rounded=1;whiteSpace=wrap;html=1;fontSize=12;glass=0;strokeWidth=1;shadow=0;fillColor=#ffe6cc;strokeColor=#d79b00;" vertex="1" parent="WIyWlLk6GJQsqaUBKTNV-1">
          <mxGeometry x="160" y="670" width="120" height="40" as="geometry" />
        </mxCell>
        <mxCell id="hGpyXgnyY8g93yTtwZEP-27" style="edgeStyle=orthogonalEdgeStyle;rounded=0;orthogonalLoop=1;jettySize=auto;html=1;entryX=0.5;entryY=0;entryDx=0;entryDy=0;" edge="1" parent="WIyWlLk6GJQsqaUBKTNV-1" source="hGpyXgnyY8g93yTtwZEP-12" target="hGpyXgnyY8g93yTtwZEP-14">
          <mxGeometry relative="1" as="geometry" />
        </mxCell>
        <mxCell id="hGpyXgnyY8g93yTtwZEP-12" value="Участник 2 подал заявку (999 д.е.)" style="rounded=1;whiteSpace=wrap;html=1;fontSize=12;glass=0;strokeWidth=1;shadow=0;fillColor=#ffe6cc;strokeColor=#d79b00;" vertex="1" parent="WIyWlLk6GJQsqaUBKTNV-1">
          <mxGeometry x="160" y="740" width="120" height="40" as="geometry" />
        </mxCell>
        <mxCell id="hGpyXgnyY8g93yTtwZEP-30" style="edgeStyle=orthogonalEdgeStyle;rounded=0;orthogonalLoop=1;jettySize=auto;html=1;entryX=0.5;entryY=0;entryDx=0;entryDy=0;" edge="1" parent="WIyWlLk6GJQsqaUBKTNV-1" source="hGpyXgnyY8g93yTtwZEP-14" target="hGpyXgnyY8g93yTtwZEP-28">
          <mxGeometry relative="1" as="geometry" />
        </mxCell>
        <mxCell id="hGpyXgnyY8g93yTtwZEP-14" value="Участник 3 подал заявку (4000 д.е.)" style="rounded=1;whiteSpace=wrap;html=1;fontSize=12;glass=0;strokeWidth=1;shadow=0;fillColor=#ffe6cc;strokeColor=#d79b00;" vertex="1" parent="WIyWlLk6GJQsqaUBKTNV-1">
          <mxGeometry x="160" y="810" width="120" height="40" as="geometry" />
        </mxCell>
        <mxCell id="hGpyXgnyY8g93yTtwZEP-31" value="Нет" style="edgeStyle=orthogonalEdgeStyle;rounded=0;orthogonalLoop=1;jettySize=auto;html=1;entryX=0.5;entryY=0;entryDx=0;entryDy=0;" edge="1" parent="WIyWlLk6GJQsqaUBKTNV-1" source="hGpyXgnyY8g93yTtwZEP-28" target="hGpyXgnyY8g93yTtwZEP-29">
          <mxGeometry x="0.6" y="20" relative="1" as="geometry">
            <mxPoint as="offset" />
          </mxGeometry>
        </mxCell>
        <mxCell id="hGpyXgnyY8g93yTtwZEP-34" value="Да" style="edgeStyle=orthogonalEdgeStyle;rounded=0;orthogonalLoop=1;jettySize=auto;html=1;entryX=0;entryY=0.5;entryDx=0;entryDy=0;" edge="1" parent="WIyWlLk6GJQsqaUBKTNV-1" source="hGpyXgnyY8g93yTtwZEP-28" target="hGpyXgnyY8g93yTtwZEP-33">
          <mxGeometry x="-0.2" y="20" relative="1" as="geometry">
            <mxPoint as="offset" />
          </mxGeometry>
        </mxCell>
        <mxCell id="hGpyXgnyY8g93yTtwZEP-28" value="Участник 1 победил?" style="rhombus;whiteSpace=wrap;html=1;shadow=0;fontFamily=Helvetica;fontSize=12;align=center;strokeWidth=1;spacing=6;spacingTop=-4;fillColor=#e1d5e7;strokeColor=#9673a6;" vertex="1" parent="WIyWlLk6GJQsqaUBKTNV-1">
          <mxGeometry x="170" y="880" width="100" height="80" as="geometry" />
        </mxCell>
        <mxCell id="hGpyXgnyY8g93yTtwZEP-32" value="Нет" style="edgeStyle=orthogonalEdgeStyle;rounded=0;orthogonalLoop=1;jettySize=auto;html=1;entryX=0.5;entryY=0;entryDx=0;entryDy=0;" edge="1" parent="WIyWlLk6GJQsqaUBKTNV-1" source="hGpyXgnyY8g93yTtwZEP-29" target="WIyWlLk6GJQsqaUBKTNV-10">
          <mxGeometry x="0.2" y="20" relative="1" as="geometry">
            <mxPoint as="offset" />
          </mxGeometry>
        </mxCell>
        <mxCell id="hGpyXgnyY8g93yTtwZEP-29" value="Участник 2 победил?" style="rhombus;whiteSpace=wrap;html=1;shadow=0;fontFamily=Helvetica;fontSize=12;align=center;strokeWidth=1;spacing=6;spacingTop=-4;fillColor=#e1d5e7;strokeColor=#9673a6;" vertex="1" parent="WIyWlLk6GJQsqaUBKTNV-1">
          <mxGeometry x="170" y="990" width="100" height="80" as="geometry" />
        </mxCell>
        <mxCell id="hGpyXgnyY8g93yTtwZEP-46" style="edgeStyle=orthogonalEdgeStyle;rounded=0;orthogonalLoop=1;jettySize=auto;html=1;" edge="1" parent="WIyWlLk6GJQsqaUBKTNV-1" source="hGpyXgnyY8g93yTtwZEP-33">
          <mxGeometry relative="1" as="geometry">
            <mxPoint x="480" y="1370" as="targetPoint" />
            <Array as="points">
              <mxPoint x="520" y="920" />
              <mxPoint x="520" y="1370" />
            </Array>
          </mxGeometry>
        </mxCell>
        <mxCell id="hGpyXgnyY8g93yTtwZEP-33" value="Вывод значения в отчете - Нет" style="rounded=1;whiteSpace=wrap;html=1;fontSize=12;glass=0;strokeWidth=1;shadow=0;fillColor=#ffe6cc;strokeColor=#d79b00;" vertex="1" parent="WIyWlLk6GJQsqaUBKTNV-1">
          <mxGeometry x="320" y="900" width="120" height="40" as="geometry" />
        </mxCell>
        <mxCell id="hGpyXgnyY8g93yTtwZEP-36" value="Да" style="edgeStyle=orthogonalEdgeStyle;rounded=0;orthogonalLoop=1;jettySize=auto;html=1;entryX=0;entryY=0.5;entryDx=0;entryDy=0;" edge="1" parent="WIyWlLk6GJQsqaUBKTNV-1" target="hGpyXgnyY8g93yTtwZEP-37">
          <mxGeometry x="-0.2" y="20" relative="1" as="geometry">
            <mxPoint x="270" y="1030" as="sourcePoint" />
            <mxPoint as="offset" />
          </mxGeometry>
        </mxCell>
        <mxCell id="hGpyXgnyY8g93yTtwZEP-45" style="edgeStyle=orthogonalEdgeStyle;rounded=0;orthogonalLoop=1;jettySize=auto;html=1;" edge="1" parent="WIyWlLk6GJQsqaUBKTNV-1" source="hGpyXgnyY8g93yTtwZEP-37">
          <mxGeometry relative="1" as="geometry">
            <mxPoint x="380" y="1370" as="targetPoint" />
            <Array as="points">
              <mxPoint x="480" y="1030" />
              <mxPoint x="480" y="1370" />
            </Array>
          </mxGeometry>
        </mxCell>
        <mxCell id="hGpyXgnyY8g93yTtwZEP-37" value="Вывод значения в отчете - Да" style="rounded=1;whiteSpace=wrap;html=1;fontSize=12;glass=0;strokeWidth=1;shadow=0;fillColor=#ffe6cc;strokeColor=#d79b00;" vertex="1" parent="WIyWlLk6GJQsqaUBKTNV-1">
          <mxGeometry x="320" y="1010" width="120" height="40" as="geometry" />
        </mxCell>
        <mxCell id="hGpyXgnyY8g93yTtwZEP-42" style="edgeStyle=orthogonalEdgeStyle;rounded=0;orthogonalLoop=1;jettySize=auto;html=1;entryX=0.5;entryY=0;entryDx=0;entryDy=0;" edge="1" parent="WIyWlLk6GJQsqaUBKTNV-1" source="hGpyXgnyY8g93yTtwZEP-40" target="WIyWlLk6GJQsqaUBKTNV-11">
          <mxGeometry relative="1" as="geometry" />
        </mxCell>
        <mxCell id="hGpyXgnyY8g93yTtwZEP-40" value="Тендер не состоялся" style="rounded=1;whiteSpace=wrap;html=1;fontSize=12;glass=0;strokeWidth=1;shadow=0;fillColor=#ffe6cc;strokeColor=#d79b00;" vertex="1" parent="WIyWlLk6GJQsqaUBKTNV-1">
          <mxGeometry x="160" y="1210" width="120" height="40" as="geometry" />
        </mxCell>
        <mxCell id="hGpyXgnyY8g93yTtwZEP-60" style="edgeStyle=orthogonalEdgeStyle;rounded=0;orthogonalLoop=1;jettySize=auto;html=1;entryX=0.5;entryY=1;entryDx=0;entryDy=0;" edge="1" parent="WIyWlLk6GJQsqaUBKTNV-1" source="hGpyXgnyY8g93yTtwZEP-47" target="WIyWlLk6GJQsqaUBKTNV-11">
          <mxGeometry relative="1" as="geometry" />
        </mxCell>
        <mxCell id="hGpyXgnyY8g93yTtwZEP-47" value="Тендер состоялся" style="rounded=1;whiteSpace=wrap;html=1;fontSize=12;glass=0;strokeWidth=1;shadow=0;fillColor=#ffe6cc;strokeColor=#d79b00;" vertex="1" parent="WIyWlLk6GJQsqaUBKTNV-1">
          <mxGeometry x="160" y="1350" width="120" height="40" as="geometry" />
        </mxCell>
        <mxCell id="hGpyXgnyY8g93yTtwZEP-54" value="Нет" style="edgeStyle=orthogonalEdgeStyle;rounded=0;orthogonalLoop=1;jettySize=auto;html=1;entryX=0.5;entryY=0;entryDx=0;entryDy=0;" edge="1" parent="WIyWlLk6GJQsqaUBKTNV-1" source="hGpyXgnyY8g93yTtwZEP-49" target="hGpyXgnyY8g93yTtwZEP-50">
          <mxGeometry x="0.6667" y="20" relative="1" as="geometry">
            <mxPoint as="offset" />
          </mxGeometry>
        </mxCell>
        <mxCell id="hGpyXgnyY8g93yTtwZEP-66" value="Да" style="edgeStyle=orthogonalEdgeStyle;rounded=0;orthogonalLoop=1;jettySize=auto;html=1;entryX=1;entryY=0.5;entryDx=0;entryDy=0;" edge="1" parent="WIyWlLk6GJQsqaUBKTNV-1" source="hGpyXgnyY8g93yTtwZEP-49" target="hGpyXgnyY8g93yTtwZEP-62">
          <mxGeometry x="-0.2" y="-20" relative="1" as="geometry">
            <mxPoint as="offset" />
          </mxGeometry>
        </mxCell>
        <mxCell id="hGpyXgnyY8g93yTtwZEP-49" value="Участник 1 победил?" style="rhombus;whiteSpace=wrap;html=1;shadow=0;fontFamily=Helvetica;fontSize=12;align=center;strokeWidth=1;spacing=6;spacingTop=-4;fillColor=#e1d5e7;strokeColor=#9673a6;" vertex="1" parent="WIyWlLk6GJQsqaUBKTNV-1">
          <mxGeometry x="10" y="570" width="100" height="80" as="geometry" />
        </mxCell>
        <mxCell id="hGpyXgnyY8g93yTtwZEP-55" value="Нет" style="edgeStyle=orthogonalEdgeStyle;rounded=0;orthogonalLoop=1;jettySize=auto;html=1;entryX=0.5;entryY=0;entryDx=0;entryDy=0;" edge="1" parent="WIyWlLk6GJQsqaUBKTNV-1" source="hGpyXgnyY8g93yTtwZEP-50" target="hGpyXgnyY8g93yTtwZEP-51">
          <mxGeometry x="0.6667" y="20" relative="1" as="geometry">
            <mxPoint as="offset" />
          </mxGeometry>
        </mxCell>
        <mxCell id="hGpyXgnyY8g93yTtwZEP-64" value="Да" style="edgeStyle=orthogonalEdgeStyle;rounded=0;orthogonalLoop=1;jettySize=auto;html=1;entryX=1;entryY=0.5;entryDx=0;entryDy=0;" edge="1" parent="WIyWlLk6GJQsqaUBKTNV-1" source="hGpyXgnyY8g93yTtwZEP-50" target="hGpyXgnyY8g93yTtwZEP-63">
          <mxGeometry x="-0.1429" y="-20" relative="1" as="geometry">
            <mxPoint as="offset" />
          </mxGeometry>
        </mxCell>
        <mxCell id="hGpyXgnyY8g93yTtwZEP-50" value="Участник 2 победил?" style="rhombus;whiteSpace=wrap;html=1;shadow=0;fontFamily=Helvetica;fontSize=12;align=center;strokeWidth=1;spacing=6;spacingTop=-4;fillColor=#e1d5e7;strokeColor=#9673a6;" vertex="1" parent="WIyWlLk6GJQsqaUBKTNV-1">
          <mxGeometry x="10" y="670" width="100" height="80" as="geometry" />
        </mxCell>
        <mxCell id="hGpyXgnyY8g93yTtwZEP-56" value="Нет" style="edgeStyle=orthogonalEdgeStyle;rounded=0;orthogonalLoop=1;jettySize=auto;html=1;entryX=0;entryY=0.5;entryDx=0;entryDy=0;" edge="1" parent="WIyWlLk6GJQsqaUBKTNV-1" source="hGpyXgnyY8g93yTtwZEP-51" target="hGpyXgnyY8g93yTtwZEP-40">
          <mxGeometry x="-0.9167" y="20" relative="1" as="geometry">
            <Array as="points">
              <mxPoint x="60" y="1230" />
            </Array>
            <mxPoint as="offset" />
          </mxGeometry>
        </mxCell>
        <mxCell id="hGpyXgnyY8g93yTtwZEP-65" value="Да" style="edgeStyle=orthogonalEdgeStyle;rounded=0;orthogonalLoop=1;jettySize=auto;html=1;entryX=1;entryY=0.5;entryDx=0;entryDy=0;" edge="1" parent="WIyWlLk6GJQsqaUBKTNV-1" source="hGpyXgnyY8g93yTtwZEP-51" target="hGpyXgnyY8g93yTtwZEP-61">
          <mxGeometry x="-0.1429" y="-20" relative="1" as="geometry">
            <mxPoint as="offset" />
          </mxGeometry>
        </mxCell>
        <mxCell id="hGpyXgnyY8g93yTtwZEP-51" value="Участник 3 победил?" style="rhombus;whiteSpace=wrap;html=1;shadow=0;fontFamily=Helvetica;fontSize=12;align=center;strokeWidth=1;spacing=6;spacingTop=-4;fillColor=#e1d5e7;strokeColor=#9673a6;" vertex="1" parent="WIyWlLk6GJQsqaUBKTNV-1">
          <mxGeometry x="10" y="770" width="100" height="80" as="geometry" />
        </mxCell>
        <mxCell id="hGpyXgnyY8g93yTtwZEP-69" style="edgeStyle=orthogonalEdgeStyle;rounded=0;orthogonalLoop=1;jettySize=auto;html=1;entryX=0;entryY=0.5;entryDx=0;entryDy=0;" edge="1" parent="WIyWlLk6GJQsqaUBKTNV-1" source="hGpyXgnyY8g93yTtwZEP-61" target="hGpyXgnyY8g93yTtwZEP-47">
          <mxGeometry relative="1" as="geometry">
            <Array as="points">
              <mxPoint x="-190" y="810" />
              <mxPoint x="-190" y="1370" />
            </Array>
          </mxGeometry>
        </mxCell>
        <mxCell id="hGpyXgnyY8g93yTtwZEP-61" value="Вывод значения в отчете - Да" style="rounded=1;whiteSpace=wrap;html=1;fontSize=12;glass=0;strokeWidth=1;shadow=0;fillColor=#ffe6cc;strokeColor=#d79b00;" vertex="1" parent="WIyWlLk6GJQsqaUBKTNV-1">
          <mxGeometry x="-160" y="790" width="120" height="40" as="geometry" />
        </mxCell>
        <mxCell id="hGpyXgnyY8g93yTtwZEP-67" style="edgeStyle=orthogonalEdgeStyle;rounded=0;orthogonalLoop=1;jettySize=auto;html=1;entryX=0;entryY=0.5;entryDx=0;entryDy=0;" edge="1" parent="WIyWlLk6GJQsqaUBKTNV-1" source="hGpyXgnyY8g93yTtwZEP-62" target="hGpyXgnyY8g93yTtwZEP-47">
          <mxGeometry relative="1" as="geometry">
            <Array as="points">
              <mxPoint x="-240" y="610" />
              <mxPoint x="-240" y="1370" />
            </Array>
          </mxGeometry>
        </mxCell>
        <mxCell id="hGpyXgnyY8g93yTtwZEP-62" value="Вывод значения в отчете - Нет" style="rounded=1;whiteSpace=wrap;html=1;fontSize=12;glass=0;strokeWidth=1;shadow=0;fillColor=#ffe6cc;strokeColor=#d79b00;" vertex="1" parent="WIyWlLk6GJQsqaUBKTNV-1">
          <mxGeometry x="-160" y="590" width="120" height="40" as="geometry" />
        </mxCell>
        <mxCell id="hGpyXgnyY8g93yTtwZEP-68" style="edgeStyle=orthogonalEdgeStyle;rounded=0;orthogonalLoop=1;jettySize=auto;html=1;entryX=0;entryY=0.5;entryDx=0;entryDy=0;" edge="1" parent="WIyWlLk6GJQsqaUBKTNV-1" source="hGpyXgnyY8g93yTtwZEP-63" target="hGpyXgnyY8g93yTtwZEP-47">
          <mxGeometry relative="1" as="geometry">
            <Array as="points">
              <mxPoint x="-210" y="710" />
              <mxPoint x="-210" y="1370" />
            </Array>
          </mxGeometry>
        </mxCell>
        <mxCell id="hGpyXgnyY8g93yTtwZEP-63" value="Вывод значения в отчете - Да" style="rounded=1;whiteSpace=wrap;html=1;fontSize=12;glass=0;strokeWidth=1;shadow=0;fillColor=#ffe6cc;strokeColor=#d79b00;" vertex="1" parent="WIyWlLk6GJQsqaUBKTNV-1">
          <mxGeometry x="-160" y="690" width="120" height="40" as="geometry" />
        </mxCell>
      </root>
    </mxGraphModel>
  </diagram>
</mxfile>
